<?xml version="1.0" encoding="utf-8"?>
<!-- Generator: Adobe Illustrator 15.1.0, SVG Export Plug-In . SVG Version: 6.00 Build 0)  -->
<!DOCTYPE svg PUBLIC "-//W3C//DTD SVG 1.1//EN" "http://www.w3.org/Graphics/SVG/1.1/DTD/svg11.dtd">
<svg version="1.1" id="Ebene_1" xmlns="http://www.w3.org/2000/svg" xmlns:xlink="http://www.w3.org/1999/xlink" x="0px" y="0px"
	 width="800px" height="550px" viewBox="285 360 80 40" enable-background="new 0 0 612 792" xml:space="preserve">
<g>
	<path d="M291.644,394.463c-0.873,0-1.583,0.305-2.133,0.915c-0.578,0.64-0.867,1.5-0.867,2.582c0,1.084,0.295,1.938,0.887,2.56
		c0.542,0.495,1.19,0.743,1.942,0.743c0.583,0,1.063-0.108,1.441-0.326c0.225-0.126,0.483-0.352,0.774-0.677l0.211,0.831h0.563
		v-3.457h-2.836v0.726h2.023c-0.009,0.757-0.201,1.305-0.576,1.643c-0.375,0.339-0.849,0.509-1.42,0.509
		c-0.747,0-1.286-0.241-1.616-0.724s-0.496-1.107-0.496-1.876c0-0.889,0.2-1.558,0.601-2.005c0.4-0.449,0.894-0.673,1.479-0.673
		c0.494,0,0.903,0.108,1.227,0.323c0.325,0.216,0.539,0.56,0.642,1.031h0.866c-0.142-0.844-0.529-1.435-1.162-1.772
		C292.759,394.58,292.242,394.463,291.644,394.463L291.644,394.463L291.644,394.463z M298.37,396.275
		c-0.659,0-1.192,0.235-1.6,0.708c-0.408,0.472-0.612,1.086-0.612,1.843c0,0.768,0.203,1.365,0.608,1.792
		c0.405,0.427,0.899,0.64,1.481,0.64c0.239,0,0.453-0.023,0.642-0.07c0.352-0.082,0.647-0.24,0.886-0.475
		c0.143-0.135,0.271-0.309,0.388-0.521c0.116-0.213,0.184-0.405,0.205-0.578h-0.779c-0.057,0.209-0.154,0.394-0.291,0.552
		c-0.245,0.274-0.572,0.411-0.982,0.411c-0.439,0-0.764-0.145-0.973-0.435c-0.209-0.289-0.321-0.674-0.336-1.153h3.426
		c0-0.475-0.023-0.82-0.07-1.038c-0.052-0.316-0.157-0.594-0.314-0.831c-0.164-0.249-0.401-0.452-0.712-0.608
		C299.024,396.354,298.702,396.275,298.37,396.275L298.37,396.275L298.37,396.275z M297.024,398.359
		c0.015-0.404,0.144-0.737,0.388-1s0.546-0.394,0.907-0.394c0.503,0,0.862,0.19,1.077,0.571c0.116,0.205,0.19,0.479,0.222,0.822
		H297.024L297.024,398.359z M303.721,396.297c-0.543,0-1.007,0.222-1.391,0.664c-0.384,0.443-0.576,1.059-0.576,1.848
		c0,0.835,0.19,1.435,0.572,1.796c0.381,0.362,0.826,0.544,1.334,0.544c0.365,0,0.659-0.059,0.88-0.176
		c0.222-0.118,0.412-0.297,0.57-0.537c0.009,0.648-0.042,1.098-0.153,1.351c-0.187,0.428-0.582,0.642-1.185,0.642
		c-0.382,0-0.662-0.088-0.84-0.264c-0.114-0.114-0.19-0.277-0.228-0.488h-0.805c0.041,0.484,0.234,0.84,0.579,1.066
		c0.345,0.228,0.77,0.341,1.275,0.341c0.909,0,1.527-0.319,1.854-0.959c0.176-0.346,0.264-0.817,0.264-1.416v-4.283h-0.73v0.594
		c-0.155-0.196-0.307-0.347-0.456-0.449C304.41,396.388,304.089,396.297,303.721,396.297L303.721,396.297L303.721,396.297z
		 M305.141,398.716c0,0.387-0.064,0.726-0.193,1.016c-0.23,0.514-0.628,0.771-1.194,0.771c-0.362,0-0.65-0.139-0.864-0.416
		s-0.322-0.681-0.322-1.212c0-0.451,0.054-0.816,0.162-1.095c0.204-0.522,0.583-0.783,1.138-0.783c0.371,0,0.675,0.141,0.915,0.423
		C305.021,397.7,305.141,398.133,305.141,398.716L305.141,398.716L305.141,398.716z"/>
	<path d="M307.908,401.091h0.792v-2.709c0-0.334,0.106-0.63,0.321-0.887c0.214-0.256,0.52-0.385,0.919-0.385
		c0.047,0,0.09,0.002,0.13,0.005c0.039,0.003,0.082,0.009,0.129,0.018v-0.836c-0.085-0.009-0.145-0.015-0.18-0.018
		s-0.061-0.004-0.075-0.004c-0.313,0-0.591,0.113-0.831,0.341c-0.24,0.227-0.392,0.42-0.453,0.578v-0.813h-0.752V401.091
		L307.908,401.091z M311.949,396.381v3.201c0,0.402,0.064,0.724,0.194,0.964c0.238,0.448,0.688,0.673,1.347,0.673
		c0.423,0,0.782-0.123,1.078-0.37c0.149-0.123,0.275-0.273,0.376-0.452l-0.009,0.694h0.748v-4.71h-0.792v2.313
		c0,0.46-0.053,0.822-0.158,1.086c-0.194,0.492-0.561,0.739-1.097,0.739c-0.374,0-0.63-0.141-0.767-0.423
		c-0.074-0.152-0.111-0.349-0.111-0.589v-3.127H311.949L311.949,396.381z M314.214,395.65h0.822v-0.915h-0.822V395.65
		L314.214,395.65z M312.763,395.65h0.822v-0.915h-0.822V395.65L312.763,395.65z M318.057,401.091h0.792v-2.467
		c0-0.309,0.02-0.545,0.06-0.711c0.039-0.165,0.125-0.326,0.257-0.481c0.164-0.193,0.355-0.322,0.572-0.387
		c0.12-0.038,0.274-0.058,0.462-0.058c0.369,0,0.624,0.146,0.765,0.44c0.085,0.176,0.128,0.407,0.128,0.694v2.969h0.805v-3.021
		c0-0.475-0.064-0.84-0.193-1.095c-0.234-0.467-0.687-0.699-1.354-0.699c-0.306,0-0.582,0.06-0.831,0.18
		c-0.25,0.12-0.485,0.318-0.708,0.594v-0.668h-0.753V401.091L318.057,401.091z M324.648,398.791c0-0.593,0.124-1.041,0.37-1.346
		c0.246-0.306,0.568-0.458,0.965-0.458c0.355,0,0.655,0.144,0.897,0.429c0.242,0.286,0.363,0.727,0.363,1.322
		c0,0.589-0.118,1.041-0.353,1.356c-0.235,0.315-0.535,0.473-0.899,0.473c-0.47,0-0.811-0.17-1.024-0.51
		C324.755,399.718,324.648,399.295,324.648,398.791L324.648,398.791L324.648,398.791z M325.833,396.297
		c-0.648,0-1.147,0.252-1.496,0.755c-0.35,0.502-0.523,1.097-0.523,1.783c0,0.732,0.191,1.32,0.573,1.761
		c0.383,0.441,0.836,0.662,1.358,0.662c0.324,0,0.612-0.064,0.863-0.193s0.469-0.339,0.653-0.629v0.655h0.712v-6.483h-0.761v2.379
		c-0.178-0.22-0.337-0.374-0.478-0.462C326.493,396.373,326.192,396.297,325.833,396.297L325.833,396.297L325.833,396.297z"/>
	<path d="M331.641,396.275c-0.658,0-1.191,0.235-1.6,0.708c-0.408,0.472-0.612,1.086-0.612,1.843c0,0.768,0.202,1.365,0.607,1.792
		s0.899,0.64,1.482,0.64c0.238,0,0.452-0.023,0.642-0.07c0.352-0.082,0.647-0.24,0.886-0.475c0.143-0.135,0.271-0.309,0.388-0.521
		c0.115-0.213,0.184-0.405,0.204-0.578h-0.778c-0.057,0.209-0.154,0.394-0.291,0.552c-0.244,0.274-0.571,0.411-0.981,0.411
		c-0.439,0-0.764-0.145-0.973-0.435c-0.21-0.289-0.322-0.674-0.337-1.153h3.427c0-0.475-0.023-0.82-0.07-1.038
		c-0.053-0.316-0.157-0.594-0.314-0.831c-0.163-0.249-0.4-0.452-0.713-0.608C332.295,396.354,331.973,396.275,331.641,396.275
		L331.641,396.275L331.641,396.275z M330.295,398.359c0.015-0.404,0.145-0.737,0.389-1s0.547-0.394,0.907-0.394
		c0.503,0,0.862,0.19,1.077,0.571c0.116,0.205,0.19,0.479,0.223,0.822H330.295L330.295,398.359z M336.036,396.381h-0.638v0.646
		h0.638v3.118c0,0.302,0.065,0.548,0.198,0.736c0.132,0.189,0.382,0.284,0.752,0.284c0.114,0,0.221-0.006,0.318-0.018
		c0.099-0.012,0.193-0.031,0.284-0.058v-0.629c-0.059,0.008-0.11,0.013-0.154,0.015s-0.085,0.003-0.123,0.003
		c-0.144,0-0.246-0.016-0.308-0.048c-0.111-0.056-0.168-0.166-0.168-0.33v-3.074h0.753v-0.646h-0.753v-1.315h-0.8V396.381
		L336.036,396.381z"/>
	<path d="M343.097,396.631v4.46h0.845v-6.271h-0.625c-0.111,0.487-0.28,0.795-0.506,0.926s-0.624,0.224-1.196,0.279v0.606H343.097
		L343.097,396.631z"/>
	<path d="M347.489,397.432c-0.299,0-0.558-0.084-0.777-0.251c-0.22-0.168-0.329-0.399-0.329-0.696c0-0.265,0.085-0.496,0.255-0.692
		c0.169-0.197,0.444-0.295,0.825-0.295c0.383,0,0.668,0.099,0.855,0.295s0.281,0.413,0.281,0.647c0,0.271-0.099,0.504-0.294,0.699
		C348.109,397.334,347.837,397.432,347.489,397.432L347.489,397.432L347.489,397.432z M347.539,400.55
		c-0.457,0-0.795-0.119-1.014-0.358c-0.218-0.239-0.327-0.522-0.327-0.851c0-0.382,0.119-0.68,0.358-0.896s0.548-0.323,0.926-0.323
		c0.39,0,0.709,0.105,0.959,0.316c0.249,0.212,0.373,0.521,0.373,0.929c0,0.393-0.12,0.688-0.362,0.886
		C348.21,400.451,347.906,400.55,347.539,400.55L347.539,400.55L347.539,400.55z M346.413,397.735
		c-0.357,0.144-0.627,0.351-0.809,0.622s-0.272,0.593-0.272,0.966c0,0.633,0.211,1.116,0.635,1.449
		c0.424,0.332,0.942,0.499,1.555,0.499c0.681,0,1.207-0.193,1.579-0.578c0.372-0.386,0.559-0.855,0.559-1.41
		c0-0.469-0.14-0.851-0.419-1.144c-0.15-0.155-0.356-0.293-0.618-0.413c0.234-0.132,0.407-0.267,0.519-0.405
		c0.199-0.243,0.299-0.561,0.299-0.954c0-0.425-0.171-0.796-0.514-1.115c-0.343-0.318-0.816-0.477-1.419-0.477
		c-0.624,0-1.106,0.168-1.445,0.506c-0.34,0.337-0.51,0.74-0.51,1.209c0,0.376,0.115,0.681,0.348,0.915
		C346.022,397.531,346.193,397.642,346.413,397.735L346.413,397.735L346.413,397.735z M350.717,399.564
		c0,0.487,0.16,0.892,0.479,1.214c0.319,0.323,0.787,0.484,1.403,0.484c0.917,0,1.568-0.495,1.952-1.485
		c0.231-0.596,0.348-1.278,0.348-2.049c0-0.683-0.097-1.251-0.29-1.705c-0.35-0.826-0.982-1.239-1.9-1.239
		c-0.68,0-1.194,0.217-1.544,0.65c-0.349,0.434-0.522,0.936-0.522,1.507c0,0.595,0.176,1.081,0.529,1.458
		c0.354,0.378,0.834,0.567,1.44,0.567c0.299,0,0.578-0.057,0.838-0.17c0.26-0.112,0.478-0.308,0.653-0.587
		c-0.111,0.965-0.301,1.604-0.567,1.92s-0.59,0.473-0.968,0.473c-0.202,0-0.384-0.044-0.545-0.132
		c-0.314-0.167-0.482-0.469-0.506-0.906H350.717L350.717,399.564z M352.718,398.271c-0.437,0-0.755-0.12-0.954-0.362
		c-0.199-0.241-0.299-0.566-0.299-0.977c0-0.434,0.113-0.78,0.341-1.039c0.227-0.259,0.534-0.389,0.921-0.389
		c0.361,0,0.658,0.113,0.891,0.34c0.233,0.227,0.35,0.571,0.35,1.034c0,0.516-0.13,0.876-0.389,1.082
		C353.318,398.169,353.031,398.271,352.718,398.271L352.718,398.271L352.718,398.271z"/>
	<path d="M358.127,394.793c-0.905,0-1.531,0.478-1.878,1.434c-0.185,0.513-0.276,1.128-0.276,1.843c0,0.924,0.153,1.66,0.461,2.208
		c0.37,0.657,0.933,0.985,1.689,0.985c0.839,0,1.442-0.402,1.812-1.205c0.256-0.561,0.383-1.269,0.383-2.125
		c0-0.902-0.141-1.614-0.422-2.133C359.532,395.128,358.942,394.793,358.127,394.793L358.127,394.793L358.127,394.793z
		 M358.116,400.541c-0.511,0-0.872-0.298-1.084-0.893c-0.138-0.39-0.207-0.906-0.207-1.548c0-0.854,0.108-1.499,0.324-1.938
		s0.558-0.658,1.024-0.658c0.508,0,0.85,0.231,1.026,0.693c0.176,0.462,0.265,1.05,0.265,1.766c0,0.991-0.122,1.668-0.366,2.032
		C358.854,400.359,358.527,400.541,358.116,400.541L358.116,400.541L358.116,400.541z"/>
	<path fill="#FFFFFF" d="M290.066,368.362c0,0-1.097-1.776-1.381-3.05c-0.342-1.534-0.292-2.749,0.115-4.028
		c0.688-2.158,2.146-3.521,3.288-4.314c2.123-1.475,5.001-1.303,5.675-1.237c3.693,0.365,5.121,1.998,5.691,2.584
		c0.713,0.732,1.855,2.441,1.665,5.406c-0.128,1.996-1.015,4.122-1.015,4.122l3.917-0.231l0.602-4.128l16.088,0.006l-0.383,4.723
		c0,0,2.209-0.994,3.721-1.177c1.473-0.178,2.362-0.144,3.798,0.23c1.29,0.336,3.107,1.423,3.107,1.423l0.346-1.799l13.813,0.001
		l0.113,1.756l2.486-0.979l1.078-0.253l1.078-0.127c0,0,0.71,0.068,1.221,0.127c0.443,0.05,1.204,0.333,1.204,0.333
		s0.678,0.278,1.063,0.492c0.429,0.237,1.131,0.751,1.284,0.935c0.128,0.093,0.465,0.5,0.714,0.856
		c0.92,1.316,0.775,2.531,0.775,2.531l0.031,17.398h-23.94l-0.115-1.473c-1.21,0.712-1.973,1.021-3.338,1.35
		c-1.921,0.464-3.105,0.406-5.064,0.146c-1.768-0.235-2.771-0.521-4.396-1.253v1.312l-14.932,0.128
		c-0.814,0.007-1.86-0.211-2.494-0.465c-0.196-0.079-0.666-0.301-1.205-0.761c-0.281-0.241-0.325-0.278-0.514-0.476v1.573h-14.806
		l-1.691-21.676C287.665,368.368,289.012,368.352,290.066,368.362L290.066,368.362z"/>
	<g>
		<defs>
			<rect id="SVGID_1_" x="287.099" y="355" width="73.596" height="48.314"/>
		</defs>
		<clipPath id="SVGID_2_">
			<use xlink:href="#SVGID_1_"  overflow="visible"/>
		</clipPath>
		<path clip-path="url(#SVGID_2_)" fill="none" stroke="#000000" stroke-width="0.4955" stroke-miterlimit="10" d="M290.066,368.362
			c0,0-1.097-1.776-1.381-3.05c-0.342-1.534-0.292-2.749,0.115-4.028c0.688-2.158,2.146-3.521,3.288-4.314
			c2.123-1.475,5.001-1.303,5.675-1.237c3.693,0.365,5.121,1.998,5.691,2.584c0.713,0.732,1.855,2.441,1.665,5.406
			c-0.128,1.996-1.015,4.122-1.015,4.122l3.917-0.231l0.602-4.128l16.088,0.006l-0.383,4.723c0,0,2.209-0.994,3.721-1.177
			c1.473-0.178,2.362-0.144,3.798,0.23c1.29,0.336,3.107,1.423,3.107,1.423l0.346-1.799l13.813,0.001l0.113,1.756l2.486-0.979
			l1.078-0.253l1.078-0.127c0,0,0.71,0.068,1.221,0.127c0.443,0.05,1.204,0.333,1.204,0.333s0.678,0.278,1.063,0.492
			c0.429,0.237,1.131,0.751,1.284,0.935c0.128,0.093,0.465,0.5,0.714,0.856c0.92,1.316,0.775,2.531,0.775,2.531l0.031,17.398h-23.94
			l-0.115-1.473c-1.21,0.712-1.973,1.021-3.338,1.35c-1.921,0.464-3.105,0.406-5.064,0.146c-1.768-0.235-2.771-0.521-4.396-1.253
			v1.312l-14.932,0.128c-0.814,0.007-1.86-0.211-2.494-0.465c-0.196-0.079-0.666-0.301-1.205-0.761
			c-0.281-0.241-0.325-0.278-0.514-0.476v1.573h-14.806l-1.691-21.676C287.665,368.368,289.012,368.352,290.066,368.362
			L290.066,368.362z"/>
		<path clip-path="url(#SVGID_2_)" fill="none" stroke="#000000" stroke-width="0.4955" stroke-miterlimit="3.8637" d="
			M290.044,368.356c0,0-1.097-1.778-1.382-3.054c-0.343-1.536-0.293-2.752,0.115-4.034c0.688-2.161,2.147-3.526,3.29-4.319
			c2.125-1.477,5.005-1.305,5.679-1.238c3.696,0.365,5.124,2,5.695,2.587c0.713,0.733,1.856,2.444,1.667,5.413
			c-0.129,1.999-1.016,4.127-1.016,4.127l3.919-0.231l0.603-4.134l16.098,0.006l-0.384,4.729c0,0,2.211-0.995,3.723-1.178
			c1.475-0.179,2.364-0.144,3.802,0.23c1.29,0.336,3.109,1.424,3.109,1.424l0.345-1.801l13.822,0.001l0.114,1.758l2.487-0.98
			l1.078-0.253l1.08-0.127c0,0,0.71,0.068,1.221,0.127c0.443,0.05,1.205,0.333,1.205,0.333s0.679,0.278,1.063,0.493
			c0.429,0.238,1.131,0.752,1.285,0.937c0.127,0.093,0.465,0.5,0.714,0.857c0.92,1.317,0.775,2.534,0.775,2.534l0.031,17.42h-23.955
			l-0.115-1.475c-1.211,0.713-1.975,1.022-3.34,1.352c-1.922,0.465-3.107,0.407-5.067,0.146c-1.769-0.236-2.772-0.522-4.399-1.254
			v1.313l-14.941,0.128c-0.814,0.007-1.861-0.211-2.496-0.465c-0.196-0.079-0.666-0.302-1.206-0.762
			c-0.281-0.241-0.325-0.278-0.514-0.476v1.575h-14.815l-1.692-21.703C287.642,368.362,288.989,368.347,290.044,368.356
			L290.044,368.356z"/>
	</g>
	<path d="M291.175,364.593c0-3.192,2.588-5.78,5.78-5.78c3.192,0,5.78,2.587,5.78,5.78s-2.588,5.78-5.78,5.78
		C293.763,370.373,291.175,367.785,291.175,364.593L291.175,364.593z"/>
	<path fill="none" stroke="#000000" stroke-width="0.2872" stroke-miterlimit="3.8637" d="M291.143,364.593
		c0-3.21,2.603-5.812,5.813-5.812c3.209,0,5.812,2.602,5.812,5.812s-2.603,5.813-5.812,5.813
		C293.746,370.405,291.143,367.803,291.143,364.593L291.143,364.593z"/>
	<path d="M290.519,370.001l0.949,17.153h10.348l0.373-3.449c0.624,0.913,1.075,1.385,1.958,2.051
		c1.133,0.854,2.398,1.303,3.297,1.538c1.958,0.513,5.21,0.237,8.543,0.258c1.852,0.012,2.897,0.004,4.749-0.033l0.006-3.255
		c1.721,1.78,3.098,2.573,5.5,3.169c2.205,0.548,3.629,0.504,5.827-0.071c1.257-0.329,1.985-0.574,3.076-1.28
		c1.015-0.658,1.543-1.142,2.284-2.098l0.466,3.381l19.765,0.012l0.373-13.742c-0.386-1.538-1.063-2.45-2.424-3.263
		c-1.268-0.757-2.255-0.709-3.729-0.652c-1.662,0.063-4.102,1.646-4.102,1.165v-1.445l-11.094,0.005l0.186,3.071l-1.119-0.746
		c-1.728-1.284-2.98-1.793-5.114-2.076c-1.516-0.2-2.424-0.146-3.916,0.187c-1.06,0.237-1.646,0.459-2.622,0.932
		c-1.049,0.508-1.617,0.872-2.518,1.61l0.466-6.538l-11.774-0.006l-0.065,3.655c-1.688,0.124-2.669,0.386-4.195,1.119
		c-1.364,0.655-2.096,1.171-3.17,2.237V370L290.519,370.001L290.519,370.001z"/>
	<path fill="none" stroke="#000000" stroke-width="0.1982" stroke-miterlimit="10" d="M290.519,370.001l0.949,17.153h10.348
		l0.373-3.449c0.624,0.913,1.075,1.385,1.958,2.051c1.133,0.854,2.398,1.303,3.297,1.538c1.958,0.513,5.21,0.237,8.543,0.258
		c1.852,0.012,2.897,0.004,4.749-0.033l0.006-3.255c1.721,1.78,3.098,2.573,5.5,3.169c2.205,0.548,3.629,0.504,5.827-0.071
		c1.257-0.329,1.985-0.574,3.076-1.28c1.015-0.658,1.543-1.142,2.284-2.098l0.466,3.381l19.765,0.012l0.373-13.742
		c-0.386-1.538-1.063-2.45-2.424-3.263c-1.268-0.757-2.255-0.709-3.729-0.652c-1.662,0.063-4.102,1.646-4.102,1.165v-1.445
		l-11.094,0.005l0.186,3.071l-1.119-0.746c-1.728-1.284-2.98-1.793-5.114-2.076c-1.516-0.2-2.424-0.146-3.916,0.187
		c-1.06,0.237-1.646,0.459-2.622,0.932c-1.049,0.508-1.617,0.872-2.518,1.61l0.466-6.538l-11.774-0.006l-0.065,3.655
		c-1.688,0.124-2.669,0.386-4.195,1.119c-1.364,0.655-2.096,1.171-3.17,2.237V370L290.519,370.001L290.519,370.001z"/>
	<path fill="none" stroke="#000000" stroke-width="0.3547" stroke-miterlimit="3.8637" d="M290.477,369.977l0.95,17.215h10.361
		l0.374-3.462c0.625,0.916,1.076,1.391,1.96,2.058c1.134,0.857,2.401,1.308,3.301,1.544c1.961,0.515,5.217,0.238,8.554,0.259
		c1.854,0.012,2.9,0.004,4.754-0.033l0.007-3.267c1.723,1.786,3.101,2.583,5.506,3.181c2.208,0.55,3.633,0.506,5.834-0.072
		c1.259-0.33,1.988-0.576,3.08-1.285c1.017-0.66,1.545-1.146,2.287-2.105l0.467,3.393l19.788,0.012l0.373-13.791
		c-0.386-1.543-1.063-2.459-2.427-3.275c-1.269-0.76-2.257-0.711-3.733-0.654c-1.664,0.063-4.106,1.651-4.106,1.169v-1.45
		l-11.106,0.005l0.186,3.083l-1.121-0.749c-1.729-1.289-2.984-1.799-5.12-2.083c-1.518-0.202-2.427-0.147-3.921,0.187
		c-1.061,0.237-1.647,0.46-2.626,0.936c-1.05,0.51-1.618,0.874-2.521,1.616l0.467-6.562l-11.788-0.006l-0.066,3.668
		c-1.689,0.125-2.671,0.387-4.2,1.123c-1.365,0.658-2.098,1.176-3.173,2.246v-2.9L290.477,369.977L290.477,369.977z"/>
	<path fill="#FFDD00" d="M310.429,386.174c-4.187,0-8.366-2.635-8.366-7.581c0-4.941,4.18-7.581,8.366-7.581V386.174
		L310.429,386.174z"/>
	<path fill="none" stroke="#000000" stroke-width="0.3547" stroke-miterlimit="3.8637" d="M310.468,386.213
		c-4.226,0-8.445-2.648-8.445-7.62c0-4.967,4.219-7.62,8.445-7.62V386.213L310.468,386.213z"/>
	<polygon fill="#FFDD00" points="311.357,367.105 320.266,367.105 318.992,385.9 311.357,385.9 311.357,367.105 	"/>
	<polygon fill="none" stroke="#000000" stroke-width="0.3547" stroke-miterlimit="3.8637" points="311.318,367.066 320.308,367.066 
		319.023,385.94 311.318,385.94 311.318,367.066 	"/>
	<path fill="#FFDD00" d="M292.583,364.611c0-2.406,1.95-4.356,4.356-4.356s4.356,1.95,4.356,4.356c0,2.406-1.95,4.356-4.356,4.356
		S292.583,367.018,292.583,364.611L292.583,364.611z"/>
	<path fill="none" stroke="#000000" stroke-width="0.2872" stroke-miterlimit="3.8637" d="M292.551,364.611
		c0-2.423,1.965-4.388,4.388-4.388s4.388,1.965,4.388,4.388c0,2.424-1.965,4.388-4.388,4.388S292.551,367.035,292.551,364.611
		L292.551,364.611z"/>
	<path fill="#FFDD00" d="M329.018,386.261c-4.188,0-8.367-2.635-8.367-7.581c0.294-4.843,4.308-7.486,8.367-7.581V386.261
		L329.018,386.261z"/>
	<path fill="none" stroke="#000000" stroke-width="0.3547" stroke-miterlimit="3.8637" d="M329.057,386.3
		c-4.227,0-8.445-2.648-8.445-7.621c0.296-4.869,4.348-7.525,8.445-7.621V386.3L329.057,386.3z"/>
	<path fill="#FFDD00" d="M329.938,379.216v-7.747c4.288,0.093,7.552,3.115,7.552,7.738L329.938,379.216L329.938,379.216z"/>
	<path fill="none" stroke="#000000" stroke-width="0.3547" stroke-miterlimit="3.8637" d="M329.898,379.256v-7.827
		c4.334,0.095,7.631,3.147,7.631,7.818L329.898,379.256L329.898,379.256z"/>
	<path fill="#FFDD00" d="M329.938,380.139v5.687c2.797,0.093,7.272-2.61,7.272-5.687H329.938L329.938,380.139z"/>
	<path fill="none" stroke="#000000" stroke-width="0.3547" stroke-miterlimit="3.8637" d="M329.898,380.1v5.766
		c2.828,0.094,7.352-2.647,7.352-5.766H329.898L329.898,380.1z"/>
	<polygon fill="#FFDD00" points="346.767,371.152 346.767,385.882 339.069,385.9 338.063,371.159 346.767,371.152 	"/>
	<polygon fill="none" stroke="#000000" stroke-width="0.3547" stroke-miterlimit="3.8637" points="346.806,371.112 346.806,385.921 
		339.037,385.94 338.021,371.119 346.806,371.112 	"/>
	<path fill="#FFDD00" d="M347.754,372.14v13.753h8.076l0.394-11.591c-0.588-1.664-1.566-3.035-4.111-3.083
		c-0.734-0.014-1.617,0.187-2.303,0.285l-0.733,0.196C348.243,371.993,348.439,371.846,347.754,372.14L347.754,372.14z"/>
	<path fill="none" stroke="#000000" stroke-width="0.3547" stroke-miterlimit="3.8637" d="M347.715,372.105v13.828h8.151
		l0.396-11.654c-0.593-1.673-1.58-3.051-4.149-3.1c-0.741-0.014-1.632,0.188-2.324,0.286l-0.74,0.197
		C348.208,371.958,348.406,371.81,347.715,372.105L347.715,372.105z"/>
	<polygon fill="#FFDD00" points="291.897,371.219 301.295,371.219 300.561,385.805 292.828,385.805 291.897,371.219 	"/>
	<polygon fill="none" stroke="#000000" stroke-width="0.3192" stroke-miterlimit="3.8637" points="291.859,371.184 301.333,371.184 
		300.592,385.84 292.797,385.84 291.859,371.184 	"/>
</g>
</svg>
