<svg xmlns="http://www.w3.org/2000/svg" viewBox="0 0 365.49 100.67"><defs><style>.cls-1{fill:#ffd400}.cls-2{fill:#004723}</style></defs><title>Element 1</title><g id="Ebene_2" data-name="Ebene 2"><g id="Ebene_1-2" data-name="Ebene 1"><g id="Logo"><path class="cls-1" d="M5.19 38.07c6.5-24.2 51.4-35 100.3-24.3-1.6-.4-3.1-.7-4.7-1.1-49.2-10.6-94 0-100.1 23.6-3.5 13.6 6.6 28.6 25.3 40.9-15.99-12-24.3-26.1-20.8-39.1z"/><path class="cls-2" d="M19.49 48.17c-.4-14.7 14.3-28 37.1-36.4-7.2.8-10.8 1.1-19.2 3.3-15.9 8.4-25.6 19.5-25.2 31.5.6 16.8 20.7 30.8 49.7 37.4-25.1-7.3-42-20.4-42.4-35.8zm82.7-48.1A170.53 170.53 0 0 0 57.29 7c.2 0 9-.3 14.5.1a178.42 178.42 0 0 1 37.9-4.8c18.5-.4 35.8 1.8 50.3 6C144.09 2.57 124-.53 102.19.07zm-1.4 25l-5.9 34.8c-.6 3.6-1.4 6.3-2.4 7.9a10.19 10.19 0 0 1-4.5 3.9 21.09 21.09 0 0 1-8.5 1.4 32.49 32.49 0 0 1-6.7-.7l1.4-8.5a28.73 28.73 0 0 0 4.2.5 6.18 6.18 0 0 0 3.3-.8 3.89 3.89 0 0 0 1.6-2 30.15 30.15 0 0 0 1.1-5.1l5.3-31.3h11.1zm17.1 39.7H108l-3.4 7.5h-9.2l17.1-36.9h11.6l5.7 36.9h-10.9zm-.7-7.6l-1.5-10.7-4.9 10.7zm44.5 6.7l-1.4 8.5h-27.2l6.2-36.9h26.4l-1.4 8.1h-15.8l-1 5.8h13.3l-1.4 8h-13.3l-1.1 6.5h16.7zm49.9-28.5l-6.2 36.9H195l3.3-19.7c.3-2 .8-4.1 1.3-6.3.4-1.8.7-3.1.9-4.1-.2.6-.5 1.4-.9 2.5-.9 2.4-1.7 4.4-2.4 6.1l-9.6 21.5h-6.7l-2.5-21.5c-.2-1.9-.4-3.9-.5-6.1-.1-1.3-.1-2.3-.2-3-.5 5.1-1.1 9.5-1.7 13.2l-2.9 17.3h-8.4l6.2-36.9h14.9l2 16.3c.2 1.3.3 2.3.4 2.8a26.6 26.6 0 0 1 1.1-2.8l7.3-16.3h15zm19.9 29.4h-9.8l-3.4 7.5h-9.2l17.1-36.9h11.5l5.7 36.9h-10.9zm-.6-7.6l-1.5-10.7-4.9 10.7zm37.7.9l9.9 1.3a21.55 21.55 0 0 1-5.9 9.9 14.91 14.91 0 0 1-10.6 3.9 14.28 14.28 0 0 1-11.1-4.7 17.9 17.9 0 0 1-4.1-12.1 24 24 0 0 1 5.1-15.1 16.58 16.58 0 0 1 13.9-6.6c4.3 0 7.8 1.3 10.4 4s4 6.1 4.1 10.4l-10.4.8a9.65 9.65 0 0 0-1.1-5.1 3.72 3.72 0 0 0-3.4-1.7c-2.7 0-4.6 2-5.6 6.1a43.47 43.47 0 0 0-1.5 9.6c0 3.8 1.5 5.7 4.4 5.7a4.4 4.4 0 0 0 3.5-1.5 11.79 11.79 0 0 0 2.4-4.9zm29.3 15.2a16.36 16.36 0 0 1-11.4-4.3q-4.8-4.35-4.8-12.3a24 24 0 0 1 5.4-15.8 17.55 17.55 0 0 1 14.1-6.5 15.45 15.45 0 0 1 11.4 4.5c3 3 4.5 7 4.5 11.9a24.79 24.79 0 0 1-5.3 15.9 17 17 0 0 1-13.9 6.6zm.1-8.6a4.91 4.91 0 0 0 4.4-2.4 21.59 21.59 0 0 0 2.4-7.1 40.89 40.89 0 0 0 .9-6.3 6.15 6.15 0 0 0-1.3-4.3 4.4 4.4 0 0 0-3.5-1.5c-2.8 0-4.7 1.9-5.8 5.8a37.38 37.38 0 0 0-1.7 10.2c-.1 3.7 1.5 5.6 4.61 5.6zm67.4-29.3l-6.2 36.9h-10.4l3.3-19.7c.3-2 .8-4.1 1.3-6.3.4-1.8.7-3.1.9-4.1-.2.6-.5 1.4-.9 2.5-.9 2.4-1.7 4.4-2.4 6.1l-9.6 21.5h-6.7l-2.5-21.5c-.2-1.9-.4-3.9-.5-6.1-.1-1.3-.1-2.3-.2-3-.5 5.1-1.1 9.5-1.7 13.2l-2.9 17.3h-8.4l6.2-36.9h14.9l2 16.3c.2 1.3.3 2.3.4 2.8a26.6 26.6 0 0 1 1.1-2.8l7.3-16.3h15z"/><path class="cls-1" d="M68.09 35.37h-27.2a2.47 2.47 0 0 0-2.6 2.3 2.41 2.41 0 0 0 2.6 2.3h4.7v12.5a2.23 2.23 0 0 0 2.1 2.3 2.16 2.16 0 0 0 2.1-2.3V40h2.6v10.2a2.11 2.11 0 1 0 4.2 0V40h2.6v12.5a2.11 2.11 0 1 0 4.2 0V40h4.7a2.47 2.47 0 0 0 2.6-2.3 2.61 2.61 0 0 0-2.6-2.33z"/></g><path class="cls-2" d="M83.59 84.77v12.1H82v-12.1zm5.1 1.3H85v-1.3h9v1.3h-3.7v10.8h-1.6zm9.31 5.4v1.2h-4.4v-1.2zm3.49-6.7v12.1h-1.6v-12.1zm2.9 5.8a18.48 18.48 0 0 0-.1-2.4h1.4l.1 1.4a3.16 3.16 0 0 1 2.9-1.6c1.2 0 3.1.7 3.1 3.7v5.2h-1.6v-5c0-1.4-.5-2.6-2-2.6a2.16 2.16 0 0 0-2.1 1.6 1.7 1.7 0 0 0-.1.7v5.2h-1.6v-6.2zm10.1 6.3v-7.5h-1.2v-1.2h1.2v-.4a4.19 4.19 0 0 1 1-3 3.25 3.25 0 0 1 3.5-.5l-.2 1.2a2.51 2.51 0 0 0-1-.2c-1.4 0-1.7 1.2-1.7 2.5v.5h2.1v1.2h-2.1V97h-1.6zm5.1-6a22.62 22.62 0 0 0-.1-2.7h1.4l.1 1.7h.1a2.62 2.62 0 0 1 2.4-1.9.9.9 0 0 1 .5.1v1.5c-.2 0-.3-.1-.5-.1a2.16 2.16 0 0 0-2.1 2c0 .2-.1.5-.1.7v4.6h-1.6v-5.9zm10.6 6l-.1-1.1H130a3.22 3.22 0 0 1-2.7 1.3 2.47 2.47 0 0 1-2.7-2.5c0-2.1 1.9-3.3 5.2-3.2v-.2a1.8 1.8 0 0 0-2-2 5.58 5.58 0 0 0-2.3.6l-.4-1A5.22 5.22 0 0 1 128 88c2.7 0 3.3 1.8 3.3 3.6v3.3a13.42 13.42 0 0 0 .1 2.1h-1.2zm-.2-4.4c-1.7 0-3.7.3-3.7 2a1.42 1.42 0 0 0 1.5 1.5 2.1 2.1 0 0 0 2.1-1.5.9.9 0 0 0 .1-.5v-1.5zm3.9 2.8a4.34 4.34 0 0 0 2.1.6c1.2 0 1.7-.6 1.7-1.3s-.5-1.2-1.6-1.6c-1.6-.6-2.3-1.4-2.3-2.5a2.7 2.7 0 0 1 3-2.6 5 5 0 0 1 2.1.5l-.4 1.2a3.52 3.52 0 0 0-1.8-.5c-.9 0-1.5.5-1.5 1.2s.5 1 1.7 1.5c1.5.6 2.3 1.3 2.3 2.6 0 1.5-1.2 2.6-3.3 2.6a4.27 4.27 0 0 1-2.4-.6zm9.2-9.6v2.5h2.3v1.2h-2.3v4.7c0 1.1.3 1.7 1.2 1.7.4 0 .7-.1.9-.1l.1 1.2a4.64 4.64 0 0 1-1.4.2 2.06 2.06 0 0 1-1.7-.7 3 3 0 0 1-.6-2.3v-4.8h-1.4v-1.2h1.4V86zm4.1 5.2a22.62 22.62 0 0 0-.1-2.7h1.4l.1 1.7h.1a2.62 2.62 0 0 1 2.4-1.9.9.9 0 0 1 .5.1v1.5c-.2 0-.3-.1-.5-.1a2.16 2.16 0 0 0-2.1 2c0 .2-.1.5-.1.7v4.6h-1.6v-5.9zm13.1 3.6a17.72 17.72 0 0 0 .1 2.4H159l-.1-1.4a3.22 3.22 0 0 1-2.9 1.6c-1.4 0-3-.8-3-3.8v-5.1h1.6V93c0 1.7.5 2.8 1.9 2.8a2.25 2.25 0 0 0 2.1-1.4 2 2 0 0 0 .1-.8v-5.3h1.6v6.2zm4.2-2.3a7 7 0 0 0 .8-1l2.6-3h1.9l-3.4 3.6 3.8 5.1h-1.9l-3-4.2-.8.9v3.3h-1.6v-12.8h1.6zm8.8-6.5v2.5h2.3v1.2h-2.3v4.7c0 1.1.3 1.7 1.2 1.7.4 0 .7-.1.9-.1l.1 1.2a4.64 4.64 0 0 1-1.4.2 2.06 2.06 0 0 1-1.7-.7 3 3 0 0 1-.6-2.3v-4.8h-1.4v-1.2h1.4V86zm11.4 8.8a17.72 17.72 0 0 0 .1 2.4h-1.4l-.1-1.4a3.22 3.22 0 0 1-2.9 1.6c-1.4 0-3-.8-3-3.8v-5.1H179V93c0 1.7.5 2.8 1.9 2.8a2.25 2.25 0 0 0 2.1-1.4 2 2 0 0 0 .1-.8v-5.3h1.6v6.2zm2.6-3.6a22.62 22.62 0 0 0-.1-2.7h1.4l.1 1.7h.1a2.62 2.62 0 0 1 2.4-1.9.9.9 0 0 1 .5.1v1.5c-.2 0-.3-.1-.5-.1a2.16 2.16 0 0 0-2.1 2c0 .2-.1.5-.1.7v4.6h-1.6v-5.9zm17 3.6a17.72 17.72 0 0 0 .1 2.4H203l-.1-1.4a3.22 3.22 0 0 1-2.9 1.6c-1.4 0-3-.8-3-3.8v-5.1h1.6V93c0 1.7.5 2.8 1.9 2.8a2.25 2.25 0 0 0 2.1-1.4 2 2 0 0 0 .1-.8v-5.3h1.6v6.2zm2.6-3.9a18.48 18.48 0 0 0-.1-2.4h1.4l.1 1.4a3.16 3.16 0 0 1 2.9-1.6c1.2 0 3.1.7 3.1 3.7v5.2h-1.6v-5c0-1.4-.5-2.6-2-2.6a2.16 2.16 0 0 0-2.1 1.6 1.7 1.7 0 0 0-.1.7v5.2h-1.6v-6.2zm17.5-6.5v10.5a16.22 16.22 0 0 0 .1 2.3h-1.4l-.1-1.5a3.15 3.15 0 0 1-3 1.7c-2.1 0-3.7-1.8-3.7-4.4 0-2.9 1.8-4.7 3.9-4.7a2.89 2.89 0 0 1 2.6 1.3v-5.2h1.6zm-1.6 7.6a1.7 1.7 0 0 0-.1-.7 2.29 2.29 0 0 0-2.3-1.8c-1.6 0-2.6 1.4-2.6 3.4 0 1.8.9 3.2 2.6 3.2a2.33 2.33 0 0 0 2.3-1.9 1.48 1.48 0 0 0 .1-.7zm7.9 3.33a5.78 5.78 0 0 0 2.8.8c1.6 0 2.5-.8 2.5-2.1 0-1.1-.6-1.8-2.3-2.4-2-.7-3.2-1.7-3.2-3.4 0-1.9 1.6-3.3 3.9-3.3a6 6 0 0 1 2.7.6l-.4 1.3a5 5 0 0 0-2.3-.6c-1.7 0-2.3 1-2.3 1.8 0 1.1.7 1.7 2.4 2.3 2.1.8 3.1 1.8 3.1 3.6s-1.4 3.5-4.2 3.5a5.69 5.69 0 0 1-3.1-.8zm17-2.53a4.22 4.22 0 0 1-4.3 4.6c-2.4 0-4.2-1.7-4.2-4.5a4.23 4.23 0 0 1 4.3-4.6c2.51.03 4.2 1.8 4.2 4.5zm-6.9.1c0 1.9 1.1 3.3 2.6 3.3s2.6-1.4 2.6-3.4c0-1.5-.7-3.3-2.6-3.3s-2.6 1.7-2.6 3.4zm9.1 4.3v-7.5h-1.2v-1.2h1.2v-.4a4.19 4.19 0 0 1 1-3 3.25 3.25 0 0 1 3.5-.5l-.2 1.2a2.51 2.51 0 0 0-1-.2c-1.4 0-1.7 1.2-1.7 2.5v.5h2.1v1.2h-2.1V97h-1.6zm7.2-11.2v2.5h2.3v1.2h-2.3v4.7c0 1.1.3 1.7 1.2 1.7.4 0 .7-.1.9-.1l.1 1.2a4.64 4.64 0 0 1-1.4.2 2.06 2.06 0 0 1-1.7-.7 3.52 3.52 0 0 1-.6-2.3v-4.8h-1.4v-1.2h1.4V86zm4.8 2.5l1.2 4.4a15.67 15.67 0 0 1 .6 2.8h.1c.2-.9.5-1.8.8-2.8l1.4-4.4h1.3l1.3 4.4c.3 1 .6 2 .8 2.8h.1a16.36 16.36 0 0 1 .7-2.8l1.2-4.4H273l-2.8 8.7h-1.5l-1.3-4.2a24.54 24.54 0 0 1-.8-2.9c-.2 1-.5 1.9-.8 2.9l-1.4 4.1H263l-2.6-8.7h1.5zm17.4 8.7l-.1-1.1h-.1a3.22 3.22 0 0 1-2.7 1.3 2.47 2.47 0 0 1-2.7-2.5c0-2.1 1.9-3.3 5.2-3.2v-.2a1.8 1.8 0 0 0-2-2 5.58 5.58 0 0 0-2.3.6l-.4-1a5.22 5.22 0 0 1 2.9-.8c2.7 0 3.3 1.8 3.3 3.6v3.3a13.42 13.42 0 0 0 .1 2.1h-1.2zm-.2-4.4c-1.7 0-3.7.3-3.7 2a1.42 1.42 0 0 0 1.5 1.5 2.1 2.1 0 0 0 2.1-1.5.9.9 0 0 0 .1-.5zm4-1.6a22.62 22.62 0 0 0-.1-2.7h1.4l.1 1.7h.1A2.62 2.62 0 0 1 287 88c.2 0 .3 0 .4.1v1.5c-.2 0-.3-.1-.5-.1a2.16 2.16 0 0 0-2.1 2c0 .2-.1.5-.1.7v4.6h-1.6v-5.9zm6.6 1.9a2.78 2.78 0 0 0 3 3 5.05 5.05 0 0 0 2.4-.5l.3 1.1a6.54 6.54 0 0 1-2.9.5 4.07 4.07 0 0 1-4.3-4.4c0-2.6 1.5-4.7 4.1-4.7 2.8 0 3.6 2.5 3.6 4.1 0 .3 0 .6-.1.7h-6.1zm4.7-1.1c0-1-.4-2.6-2.2-2.6a2.6 2.6 0 0 0-2.4 2.6zm3.5-7.6h1.6v12.8h-1.6zm12.11 8.4a4.22 4.22 0 0 1-4.3 4.6c-2.4 0-4.2-1.7-4.2-4.5a4.23 4.23 0 0 1 4.3-4.6c2.49.03 4.2 1.8 4.2 4.5zm-6.9.1c0 1.9 1.1 3.3 2.6 3.3s2.6-1.4 2.6-3.4c0-1.5-.7-3.3-2.6-3.3s-2.61 1.7-2.61 3.4zm.1-6.9a.9.9 0 1 1 .9.9c-.61.1-.91-.4-.91-.9zm3.3 0a.9.9 0 1 1 .9.9c-.51.1-.91-.4-.91-.9zm5.29 9.6a4.34 4.34 0 0 0 2.1.6c1.2 0 1.7-.6 1.7-1.3s-.4-1.2-1.6-1.6c-1.6-.6-2.3-1.4-2.3-2.5a2.7 2.7 0 0 1 3-2.6 5 5 0 0 1 2.1.5l-.4 1.2a3.52 3.52 0 0 0-1.8-.5c-.9 0-1.5.5-1.5 1.2s.5 1 1.7 1.5c1.5.6 2.3 1.3 2.3 2.6 0 1.5-1.2 2.6-3.3 2.6a4.27 4.27 0 0 1-2.4-.6zm14.6-.8a17.72 17.72 0 0 0 .1 2.4h-1.4l-.1-1.4a3.22 3.22 0 0 1-2.9 1.6c-1.4 0-3-.8-3-3.8v-5.1h1.6V93c0 1.7.5 2.8 1.9 2.8a2.25 2.25 0 0 0 2.1-1.4 2 2 0 0 0 .1-.8v-5.3h1.6v6.2zm2.61-3.9a18.48 18.48 0 0 0-.1-2.4h1.4l.1 1.4a3.16 3.16 0 0 1 2.9-1.6c1.2 0 3.1.7 3.1 3.7v5.2h-1.6v-5c0-1.4-.5-2.6-2-2.6a2.16 2.16 0 0 0-2.1 1.6 1.7 1.7 0 0 0-.1.7v5.2H329v-6.2zm17.49-2.4c0 .6-.1 1.3-.1 2.4v5.1c0 2-.4 3.2-1.2 4a4.55 4.55 0 0 1-3.2 1 6.53 6.53 0 0 1-2.9-.7l.4-1.2a4.73 4.73 0 0 0 2.6.7c1.6 0 2.8-.8 2.8-3v-1a3.16 3.16 0 0 1-2.8 1.5c-2.2 0-3.7-1.8-3.7-4.2 0-3 1.9-4.6 3.9-4.6a2.94 2.94 0 0 1 2.7 1.5l.1-1.3h1.4zm-1.6 3.4a1.48 1.48 0 0 0-.1-.7 2.37 2.37 0 0 0-2.2-1.7c-1.5 0-2.6 1.3-2.6 3.3 0 1.7.9 3.1 2.6 3.1a2.25 2.25 0 0 0 2.2-1.6 2.49 2.49 0 0 0 .1-.8zm5.11 1.2a2.78 2.78 0 0 0 3 3 5.05 5.05 0 0 0 2.4-.5l.3 1.1a6.54 6.54 0 0 1-2.9.5 4.07 4.07 0 0 1-4.3-4.4c0-2.6 1.5-4.7 4.1-4.7 2.8 0 3.6 2.5 3.6 4.1 0 .3 0 .6-.1.7H350zm4.6-1.1c0-1-.4-2.6-2.2-2.6a2.6 2.6 0 0 0-2.4 2.6zm3.49-1.1a18.48 18.48 0 0 0-.1-2.4h1.4l.1 1.4a3.16 3.16 0 0 1 2.9-1.6c1.2 0 3.1.7 3.1 3.7v5.2h-1.6v-5c0-1.4-.5-2.6-2-2.6a2.16 2.16 0 0 0-2.1 1.6 1.7 1.7 0 0 0-.1.7v5.2h-1.6v-6.2z" id="Hilfslinien"/></g></g></svg>