<?xml version="1.0" encoding="UTF-8"?>
<svg width="161px" height="69px" viewBox="0 0 161 69" version="1.1" xmlns="http://www.w3.org/2000/svg" xmlns:xlink="http://www.w3.org/1999/xlink">
    <title>logo_dark</title>
    <defs>
        <radialGradient cx="90.6521999%" cy="0%" fx="90.6521999%" fy="0%" r="123.042015%" gradientTransform="translate(0.906522,0.000000),scale(1.000000,0.870810),rotate(124.579677),translate(-0.906522,-0.000000)" id="radialGradient-1">
            <stop stop-color="#FCAD22" offset="0%"></stop>
            <stop stop-color="#E424AF" offset="48.7832559%"></stop>
            <stop stop-color="#1D78EA" offset="100%"></stop>
        </radialGradient>
    </defs>
    <g id="Page-1" stroke="none" stroke-width="1" fill="none" fill-rule="evenodd">
        <g id="logo_dark" fill-rule="nonzero">
            <g id="logo_15_02">
                <g id="Group" transform="translate(0.029688, 0.112169)" fill="url(#radialGradient-1)">
                    <path d="M16.138125,11.3349398 C23.4590625,11.3349398 28.8028125,17.2857831 28.8028125,25.6807229 C28.8028125,34.1287952 23.4590625,40.0796386 16.138125,40.0796386 C14.048467,40.0796386 12.165544,39.6000097 10.5313525,38.7173061 L10.5313297,33.5354561 C11.6400962,34.1912012 12.9396552,34.5538554 14.3746875,34.5538554 C19.02375,34.5538554 22.336875,30.8345783 22.336875,25.6807229 C22.336875,20.5268675 19.02375,16.8607229 14.3746875,16.8607229 C9.86416667,16.8607229 6.69203897,20.3923416 6.57609957,25.395942 L6.5728125,25.6807229 L6.55722656,25.6807229 L6.53540625,35.1082048 L6.519375,35.0851807 L6.519375,48.5808434 L0,48.5808434 L0,11.9725301 L6.519375,11.9725301 L6.519375,16.3293976 C8.7103125,13.1945783 12.0234375,11.3349398 16.138125,11.3349398 Z M41.2003125,11.9725301 L41.2003125,39.4420482 L34.6809375,39.4420482 L34.6809375,11.9725301 L41.2003125,11.9725301 Z M38.1046538,0 C40.4177158,0 42.3046875,1.93672532 42.3046875,4.17606397 C42.3046875,6.4154026 40.4177158,8.4126506 38.1046538,8.4126506 C35.7307217,8.4126506 33.84375,6.4154026 33.84375,4.17606397 C33.84375,1.93672532 35.7307217,0 38.1046538,0 Z" id="Path-2"></path>
                </g>
                <path d="M140.605937,11.4471084 C144.4,11.4471084 148.194062,12.7754217 151.186562,14.7413253 L151.186562,14.7413253 L148.46125,19.4701205 C145.842812,17.823012 143.010625,16.9728916 140.605937,16.9728916 C138.308125,16.9728916 136.544687,17.8761446 136.544687,19.416988 C136.544687,21.1703614 137.9875,21.7016867 142.209062,22.9237349 C146.858125,24.1989157 151.88125,25.7928916 151.88125,31.5312048 C151.88125,36.7913253 147.499375,40.1918072 141.033437,40.1918072 C136.811875,40.1918072 132.269687,38.7040964 128.956562,36.0474699 L128.956562,36.0474699 L131.895625,31.5312048 C134.5675,33.4439759 137.666875,34.7191566 141.140312,34.7191566 C143.75875,34.7191566 145.575625,33.6033735 145.575625,31.9031325 C145.575625,29.7778313 143.170937,29.0871084 140.018125,28.236988 C134.033125,26.6961446 130.239062,24.9959036 130.185625,20.1077108 C130.185625,14.9538554 134.460625,11.4471084 140.605937,11.4471084 Z M86.580625,12.0846988 L86.580625,28.2901205 C86.580625,32.0093976 88.9853125,34.6660241 92.4053125,34.6660241 C95.8253125,34.6660241 98.6575,32.3813253 99.085,29.4590361 L99.085,29.4590361 L99.085,12.0846988 L105.604375,12.0846988 L105.604375,39.5542169 L99.085,39.5542169 L99.085,35.8880723 C97.375,38.4384337 94.16875,40.1918072 90.535,40.1918072 C84.4965625,40.1918072 80.275,35.7818072 80.275,29.5653012 L80.275,29.5653012 L80.275,12.0846988 L86.580625,12.0846988 Z M118.874687,4.53987952 L118.874687,12.0846988 L125.126875,12.0846988 L125.126875,17.4510843 L118.874687,17.4510843 L118.874687,31.4780723 C118.874687,33.3377108 120.050312,34.6660241 121.6,34.6660241 C122.722187,34.6660241 123.7375,34.2409639 124.325312,33.656506 L124.325312,33.656506 L126.195625,38.0133735 C124.645937,39.3416867 122.401562,40.1918072 120.3175,40.1918072 C115.721875,40.1918072 112.515625,36.8975904 112.515625,32.2750602 L112.515625,32.2750602 L112.515625,4.53987952 L118.874687,4.53987952 Z M63.95875,11.4471084 C69.9971875,11.4471084 74.21875,15.8571084 74.21875,22.0736145 L74.21875,22.0736145 L74.21875,39.5542169 L67.913125,39.5542169 L67.913125,23.3487952 C67.913125,19.6295181 65.5084375,16.9728916 62.0884375,16.9728916 C58.6684375,16.9728916 55.83625,19.2575904 55.40875,22.1798795 L55.40875,22.1798795 L55.40875,39.5542169 L48.889375,39.5542169 L48.889375,12.0846988 L55.40875,12.0846988 L55.40875,15.7508434 C57.11875,13.2004819 60.325,11.4471084 63.95875,11.4471084 Z" id="Shape" fill="#FFFFFF"></path>
            </g>
        </g>
    </g>
</svg>